# xmcd
#
# Track frame offsets:
#	150
#	23863
#	54071
#	80870
#	98294
#	111308
#	124875
#	151925
#	169338
#	187687
#	198915
#	215119
#	243560
#	270706
#	288957
#
# Disc length: 4182 seconds
#
# Revision: 1
# Processed by: cddbd v1.5.2PL0 Copyright (c) Steve Scherf et al.
# Submitted via: audiograbber 1.83.01
#
DISCID=cc10540f
DTITLE=Various Artist - Searchin' 4 Soul
DYEAR=2004
DGENRE=Soul
TTITLE0=The Commodores - This is your life
TTITLE1=S.O.S. Band - No one's gonna love you
TTITLE2=Mtume - Juicy fruit
TTITLE3=Curtis Mayfield - Trippin' out
TTITLE4=Marvin Gaye and Tammi Terrell - Listen to your heart
TTITLE5=Brothers Johnson - Tomorrow
TTITLE6=Bootsy Collins - What's a telephone bill
TTITLE7=Luther Vandross - Never too much
TTITLE8=Tyrone Davis - In the mood
TTITLE9=Ohio Players - Ecstasy
TTITLE10=Stephanie Mills - Starlight
TTITLE11=Isaac Hayes - Hung up on my baby
TTITLE12=One Way - If you play your cards right
TTITLE13=Joe Sample - In my wildest dreams
TTITLE14=Mtume  - Sugarfree
EXTD=
EXTT0=
EXTT1=
EXTT2=
EXTT3=
EXTT4=
EXTT5=
EXTT6=
EXTT7=
EXTT8=
EXTT9=
EXTT10=
EXTT11=
EXTT12=
EXTT13=
EXTT14=
PLAYORDER=
